<mxfile host="app.diagrams.net" agent="Mozilla/5.0 (Windows NT 10.0; Win64; x64) AppleWebKit/537.36 (KHTML, like Gecko) Chrome/131.0.0.0 Safari/537.36 Edg/131.0.0.0" version="25.0.1">
  <diagram name="Page-1" id="0783ab3e-0a74-02c8-0abd-f7b4e66b4bec">
    <mxGraphModel dx="1556" dy="851" grid="1" gridSize="10" guides="1" tooltips="1" connect="1" arrows="1" fold="1" page="1" pageScale="1" pageWidth="850" pageHeight="1100" background="none" math="0" shadow="0">
      <root>
        <mxCell id="0" />
        <mxCell id="1" parent="0" />
        <mxCell id="2JOEwzenuvAX-weoiPba-1" value="Thread 1" style="swimlane;whiteSpace=wrap" vertex="1" parent="1">
          <mxGeometry x="164.5" y="128" width="280" height="570" as="geometry" />
        </mxCell>
        <mxCell id="2JOEwzenuvAX-weoiPba-2" value="" style="ellipse;shape=startState;fillColor=#000000;strokeColor=#ff0000;" vertex="1" parent="2JOEwzenuvAX-weoiPba-1">
          <mxGeometry x="100" y="40" width="30" height="30" as="geometry" />
        </mxCell>
        <mxCell id="2JOEwzenuvAX-weoiPba-3" value="" style="edgeStyle=elbowEdgeStyle;elbow=horizontal;verticalAlign=bottom;endArrow=open;endSize=8;strokeColor=#FF0000;endFill=1;rounded=0" edge="1" parent="2JOEwzenuvAX-weoiPba-1" source="2JOEwzenuvAX-weoiPba-2" target="2JOEwzenuvAX-weoiPba-4">
          <mxGeometry x="100" y="40" as="geometry">
            <mxPoint x="115" y="110" as="targetPoint" />
          </mxGeometry>
        </mxCell>
        <mxCell id="2JOEwzenuvAX-weoiPba-4" value="idle" style="" vertex="1" parent="2JOEwzenuvAX-weoiPba-1">
          <mxGeometry x="60" y="110" width="110" height="50" as="geometry" />
        </mxCell>
        <mxCell id="2JOEwzenuvAX-weoiPba-5" value="user action" style="" vertex="1" parent="2JOEwzenuvAX-weoiPba-1">
          <mxGeometry x="60" y="220" width="110" height="50" as="geometry" />
        </mxCell>
        <mxCell id="2JOEwzenuvAX-weoiPba-6" value="" style="endArrow=open;strokeColor=#FF0000;endFill=1;rounded=0" edge="1" parent="2JOEwzenuvAX-weoiPba-1" source="2JOEwzenuvAX-weoiPba-4" target="2JOEwzenuvAX-weoiPba-5">
          <mxGeometry relative="1" as="geometry" />
        </mxCell>
        <mxCell id="2JOEwzenuvAX-weoiPba-7" value="post command" style="" vertex="1" parent="2JOEwzenuvAX-weoiPba-1">
          <mxGeometry x="60" y="325" width="110" height="50" as="geometry" />
        </mxCell>
        <mxCell id="2JOEwzenuvAX-weoiPba-8" value="" style="endArrow=open;strokeColor=#FF0000;endFill=1;rounded=0" edge="1" parent="2JOEwzenuvAX-weoiPba-1" source="2JOEwzenuvAX-weoiPba-5" target="2JOEwzenuvAX-weoiPba-7">
          <mxGeometry relative="1" as="geometry" />
        </mxCell>
        <mxCell id="2JOEwzenuvAX-weoiPba-9" value="" style="edgeStyle=elbowEdgeStyle;elbow=horizontal;strokeColor=#FF0000;endArrow=open;endFill=1;rounded=0" edge="1" parent="2JOEwzenuvAX-weoiPba-1" source="2JOEwzenuvAX-weoiPba-7" target="2JOEwzenuvAX-weoiPba-4">
          <mxGeometry width="100" height="100" relative="1" as="geometry">
            <mxPoint x="160" y="290" as="sourcePoint" />
            <mxPoint x="260" y="190" as="targetPoint" />
            <Array as="points">
              <mxPoint x="30" y="250" />
            </Array>
          </mxGeometry>
        </mxCell>
        <mxCell id="2JOEwzenuvAX-weoiPba-10" value="Thread 2" style="swimlane;whiteSpace=wrap" vertex="1" parent="1">
          <mxGeometry x="444.5" y="128" width="280" height="570" as="geometry" />
        </mxCell>
        <mxCell id="2JOEwzenuvAX-weoiPba-11" value="" style="ellipse;shape=startState;fillColor=#000000;strokeColor=#ff0000;" vertex="1" parent="2JOEwzenuvAX-weoiPba-10">
          <mxGeometry x="60" y="40" width="30" height="30" as="geometry" />
        </mxCell>
        <mxCell id="2JOEwzenuvAX-weoiPba-12" value="" style="edgeStyle=elbowEdgeStyle;elbow=horizontal;verticalAlign=bottom;endArrow=open;endSize=8;strokeColor=#FF0000;endFill=1;rounded=0" edge="1" parent="2JOEwzenuvAX-weoiPba-10" source="2JOEwzenuvAX-weoiPba-11" target="2JOEwzenuvAX-weoiPba-13">
          <mxGeometry x="40" y="20" as="geometry">
            <mxPoint x="55" y="90" as="targetPoint" />
          </mxGeometry>
        </mxCell>
        <mxCell id="2JOEwzenuvAX-weoiPba-13" value="idle" style="" vertex="1" parent="2JOEwzenuvAX-weoiPba-10">
          <mxGeometry x="20" y="110" width="110" height="50" as="geometry" />
        </mxCell>
        <mxCell id="2JOEwzenuvAX-weoiPba-14" value="check for &#xa;new commands" style="" vertex="1" parent="2JOEwzenuvAX-weoiPba-10">
          <mxGeometry x="20" y="220" width="110" height="50" as="geometry" />
        </mxCell>
        <mxCell id="2JOEwzenuvAX-weoiPba-15" value="" style="endArrow=open;strokeColor=#FF0000;endFill=1;rounded=0" edge="1" parent="2JOEwzenuvAX-weoiPba-10" source="2JOEwzenuvAX-weoiPba-13" target="2JOEwzenuvAX-weoiPba-14">
          <mxGeometry relative="1" as="geometry" />
        </mxCell>
        <mxCell id="2JOEwzenuvAX-weoiPba-16" value="command queue" style="" vertex="1" parent="2JOEwzenuvAX-weoiPba-10">
          <mxGeometry x="20" y="325" width="110" height="50" as="geometry" />
        </mxCell>
        <mxCell id="2JOEwzenuvAX-weoiPba-17" value="" style="endArrow=open;strokeColor=#FF0000;endFill=1;rounded=0" edge="1" parent="2JOEwzenuvAX-weoiPba-10" source="2JOEwzenuvAX-weoiPba-14" target="2JOEwzenuvAX-weoiPba-16">
          <mxGeometry relative="1" as="geometry" />
        </mxCell>
        <mxCell id="2JOEwzenuvAX-weoiPba-18" value="queue empty" style="rhombus;fillColor=#ffffc0;strokeColor=#ff0000;" vertex="1" parent="2JOEwzenuvAX-weoiPba-10">
          <mxGeometry x="150" y="225" width="80" height="40" as="geometry" />
        </mxCell>
        <mxCell id="2JOEwzenuvAX-weoiPba-19" value="yes" style="edgeStyle=elbowEdgeStyle;elbow=horizontal;align=left;verticalAlign=bottom;endArrow=open;endSize=8;strokeColor=#FF0000;exitX=0.5;exitY=0;endFill=1;rounded=0;entryX=0.75;entryY=0.5;entryPerimeter=0" edge="1" parent="2JOEwzenuvAX-weoiPba-10" source="2JOEwzenuvAX-weoiPba-18" target="2JOEwzenuvAX-weoiPba-22">
          <mxGeometry x="-1" relative="1" as="geometry">
            <mxPoint x="160" y="150" as="targetPoint" />
            <Array as="points">
              <mxPoint x="190" y="180" />
            </Array>
          </mxGeometry>
        </mxCell>
        <mxCell id="2JOEwzenuvAX-weoiPba-20" value="no" style="edgeStyle=elbowEdgeStyle;elbow=horizontal;align=left;verticalAlign=top;endArrow=open;endSize=8;strokeColor=#FF0000;endFill=1;rounded=0" edge="1" parent="2JOEwzenuvAX-weoiPba-10" source="2JOEwzenuvAX-weoiPba-18" target="2JOEwzenuvAX-weoiPba-24">
          <mxGeometry x="-1" relative="1" as="geometry">
            <mxPoint x="190" y="305" as="targetPoint" />
          </mxGeometry>
        </mxCell>
        <mxCell id="2JOEwzenuvAX-weoiPba-21" value="" style="endArrow=open;strokeColor=#FF0000;endFill=1;rounded=0" edge="1" parent="2JOEwzenuvAX-weoiPba-10" source="2JOEwzenuvAX-weoiPba-14" target="2JOEwzenuvAX-weoiPba-18">
          <mxGeometry relative="1" as="geometry" />
        </mxCell>
        <mxCell id="2JOEwzenuvAX-weoiPba-22" value="" style="shape=line;strokeWidth=6;strokeColor=#ff0000;rotation=90" vertex="1" parent="2JOEwzenuvAX-weoiPba-10">
          <mxGeometry x="130" y="127.5" width="50" height="15" as="geometry" />
        </mxCell>
        <mxCell id="2JOEwzenuvAX-weoiPba-23" value="" style="edgeStyle=elbowEdgeStyle;elbow=horizontal;verticalAlign=bottom;endArrow=open;endSize=8;strokeColor=#FF0000;endFill=1;rounded=0" edge="1" parent="2JOEwzenuvAX-weoiPba-10" source="2JOEwzenuvAX-weoiPba-22" target="2JOEwzenuvAX-weoiPba-13">
          <mxGeometry x="130" y="90" as="geometry">
            <mxPoint x="230" y="140" as="targetPoint" />
          </mxGeometry>
        </mxCell>
        <mxCell id="2JOEwzenuvAX-weoiPba-24" value="dispatch&#xa;command&#xa;worker thread" style="" vertex="1" parent="2JOEwzenuvAX-weoiPba-10">
          <mxGeometry x="140" y="325" width="110" height="50" as="geometry" />
        </mxCell>
        <mxCell id="2JOEwzenuvAX-weoiPba-25" value="critical&#xa;section" style="shape=note;whiteSpace=wrap;size=17" vertex="1" parent="2JOEwzenuvAX-weoiPba-10">
          <mxGeometry x="105" y="490" width="100" height="50" as="geometry" />
        </mxCell>
        <mxCell id="2JOEwzenuvAX-weoiPba-26" value="" style="endArrow=none;strokeColor=#FF0000;endFill=0;rounded=0;dashed=1" edge="1" parent="2JOEwzenuvAX-weoiPba-10" source="2JOEwzenuvAX-weoiPba-16" target="2JOEwzenuvAX-weoiPba-25">
          <mxGeometry relative="1" as="geometry" />
        </mxCell>
        <mxCell id="2JOEwzenuvAX-weoiPba-27" value="" style="whiteSpace=wrap;strokeColor=#FF0000;fillColor=#FF0000" vertex="1" parent="2JOEwzenuvAX-weoiPba-10">
          <mxGeometry x="245" y="395" width="5" height="45" as="geometry" />
        </mxCell>
        <mxCell id="2JOEwzenuvAX-weoiPba-28" value="" style="edgeStyle=elbowEdgeStyle;elbow=horizontal;entryX=0;entryY=0.5;strokeColor=#FF0000;endArrow=open;endFill=1;rounded=0" edge="1" parent="2JOEwzenuvAX-weoiPba-10" source="2JOEwzenuvAX-weoiPba-24" target="2JOEwzenuvAX-weoiPba-27">
          <mxGeometry width="100" height="100" relative="1" as="geometry">
            <mxPoint x="60" y="480" as="sourcePoint" />
            <mxPoint x="160" y="380" as="targetPoint" />
            <Array as="points">
              <mxPoint x="195" y="400" />
            </Array>
          </mxGeometry>
        </mxCell>
        <mxCell id="2JOEwzenuvAX-weoiPba-29" value="Thread 3" style="swimlane;whiteSpace=wrap" vertex="1" parent="1">
          <mxGeometry x="724.5" y="128" width="280" height="570" as="geometry" />
        </mxCell>
        <mxCell id="2JOEwzenuvAX-weoiPba-30" value="process&#xa;command" style="" vertex="1" parent="2JOEwzenuvAX-weoiPba-29">
          <mxGeometry x="90" y="405" width="110" height="50" as="geometry" />
        </mxCell>
        <mxCell id="2JOEwzenuvAX-weoiPba-31" value="" style="edgeStyle=elbowEdgeStyle;elbow=horizontal;strokeColor=#FF0000;endArrow=open;endFill=1;rounded=0;entryX=0.25;entryY=0.5;entryPerimeter=0" edge="1" parent="2JOEwzenuvAX-weoiPba-29" target="2JOEwzenuvAX-weoiPba-22">
          <mxGeometry width="100" height="100" relative="1" as="geometry">
            <mxPoint x="-30" y="410" as="sourcePoint" />
            <mxPoint x="-120" y="120" as="targetPoint" />
            <Array as="points">
              <mxPoint x="-10" y="135" />
            </Array>
          </mxGeometry>
        </mxCell>
        <mxCell id="2JOEwzenuvAX-weoiPba-32" value="" style="edgeStyle=none;strokeColor=#FF0000;endArrow=open;endFill=1;rounded=0" edge="1" parent="2JOEwzenuvAX-weoiPba-29" target="2JOEwzenuvAX-weoiPba-30">
          <mxGeometry width="100" height="100" relative="1" as="geometry">
            <mxPoint x="-30" y="429.5" as="sourcePoint" />
            <mxPoint x="90" y="429.5" as="targetPoint" />
          </mxGeometry>
        </mxCell>
        <mxCell id="2JOEwzenuvAX-weoiPba-33" value="" style="ellipse;shape=endState;fillColor=#000000;strokeColor=#ff0000" vertex="1" parent="2JOEwzenuvAX-weoiPba-29">
          <mxGeometry x="130" y="500" width="30" height="30" as="geometry" />
        </mxCell>
        <mxCell id="2JOEwzenuvAX-weoiPba-34" value="" style="endArrow=open;strokeColor=#FF0000;endFill=1;rounded=0" edge="1" parent="2JOEwzenuvAX-weoiPba-29" source="2JOEwzenuvAX-weoiPba-30" target="2JOEwzenuvAX-weoiPba-33">
          <mxGeometry relative="1" as="geometry" />
        </mxCell>
        <mxCell id="2JOEwzenuvAX-weoiPba-35" value="" style="endArrow=open;strokeColor=#FF0000;endFill=1;rounded=0" edge="1" parent="1" source="2JOEwzenuvAX-weoiPba-7" target="2JOEwzenuvAX-weoiPba-16">
          <mxGeometry relative="1" as="geometry" />
        </mxCell>
      </root>
    </mxGraphModel>
  </diagram>
</mxfile>
